<svg width="130" height="160" viewBox="80 5 130 160" fill="none" xmlns="http://www.w3.org/2000/svg">
  <defs>
    <linearGradient id="rightFace" x1="185" y1="72" x2="145" y2="135" gradientUnits="userSpaceOnUse">
      <stop offset="0" stop-color="#707E86"/>
      <stop offset="1" stop-color="#4A5860"/>
    </linearGradient>
    <linearGradient id="topFace" x1="105" y1="72" x2="185" y2="72" gradientUnits="userSpaceOnUse">
      <stop offset="0" stop-color="#4C7A37"/>
      <stop offset="1" stop-color="#356628"/>
    </linearGradient>
  </defs>

  <path d="M145 26L205 60V128L145 162L85 128V60Z" fill="#2B2B2B"/>
  <path d="M145 49L185 72L145 94L105 72Z" fill="url(#topFace)"/>
  <path d="M105 72L145 94V135L105 113Z" fill="#4E5A62"/>
  <path d="M185 72L145 94V135L185 113Z" fill="url(#rightFace)"/>
  <path d="M113 81L145 99L177 81" stroke="#F0ECE6" stroke-width="4.5" stroke-linecap="round" opacity="0.92"/>
  <path d="M113 94L145 112L177 94" stroke="#F0ECE6" stroke-width="4.5" stroke-linecap="round" opacity="0.62"/>
  <path d="M113 107L145 125L177 107" stroke="#F0ECE6" stroke-width="4.5" stroke-linecap="round" opacity="0.35"/>
  <path d="M145 26L205 60" stroke="rgba(255,255,255,0.06)" stroke-width="1.5"/>
  <path d="M145 26L85 60" stroke="rgba(255,255,255,0.04)" stroke-width="1.5"/>
  <rect x="137" y="8" width="16" height="14" rx="4" fill="#4A5860"/>
  <path d="M139 22H151L148 34H142Z" fill="#8A949A"/>
  <circle cx="145" cy="40" r="3.5" fill="#3C6E2E"/>
</svg>
